<?xml version="1.0" encoding="UTF-8" standalone="no"?>
<!DOCTYPE svg PUBLIC "-//W3C//DTD SVG 1.1//EN" "http://www.w3.org/Graphics/SVG/1.1/DTD/svg11.dtd">
<svg width="100%" height="100%" viewBox="0 0 96 98" version="1.1" xmlns="http://www.w3.org/2000/svg" xmlns:xlink="http://www.w3.org/1999/xlink" xml:space="preserve" xmlns:serif="http://www.serif.com/" style="fill-rule:evenodd;clip-rule:evenodd;stroke-linejoin:round;stroke-miterlimit:2;">
    <g transform="matrix(0.978316,0,0,0.978316,-165.122,-6.22593)">
        <path d="M199.166,66.295L250.283,15.178C258.105,7.356 265.523,14.419 265.523,14.419L207.156,72.785C209.67,76.188 211.156,80.394 211.156,84.944C211.156,96.255 201.973,105.438 190.662,105.438C179.352,105.438 170.169,96.255 170.169,84.944C170.169,73.633 179.352,64.451 190.662,64.451C193.695,64.451 196.574,65.111 199.166,66.295ZM265.523,98.512L227.338,60.327L220.07,67.594C220.07,67.594 245.692,93.217 251.117,98.642C257.654,105.179 265.523,98.512 265.523,98.512ZM190.662,73.673C196.883,73.673 201.934,78.723 201.934,84.944C201.934,91.165 196.883,96.216 190.662,96.216C184.441,96.216 179.391,91.165 179.391,84.944C179.391,78.723 184.441,73.673 190.662,73.673ZM199.086,46.641C196.516,47.802 193.664,48.449 190.662,48.449C179.352,48.449 170.169,39.266 170.169,27.955C170.169,16.644 179.352,7.462 190.662,7.462C201.973,7.462 211.156,16.644 211.156,27.955C211.156,32.52 209.66,36.739 207.133,40.146L211.756,44.769L204.485,52.04L199.086,46.641ZM190.662,16.684C196.883,16.684 201.934,21.734 201.934,27.955C201.934,34.176 196.883,39.227 190.662,39.227C184.441,39.227 179.391,34.176 179.391,27.955C179.391,21.734 184.441,16.684 190.662,16.684Z" style="fill:white;"/>
    </g>
</svg>
