<?xml version="1.0" encoding="UTF-8" standalone="no"?>
<!DOCTYPE svg PUBLIC "-//W3C//DTD SVG 1.1//EN" "http://www.w3.org/Graphics/SVG/1.1/DTD/svg11.dtd">
<svg width="100%" height="100%" viewBox="0 0 97 97" version="1.1" xmlns="http://www.w3.org/2000/svg" xmlns:xlink="http://www.w3.org/1999/xlink" xml:space="preserve" xmlns:serif="http://www.serif.com/" style="fill-rule:evenodd;clip-rule:evenodd;stroke-linejoin:round;stroke-miterlimit:1.5;">
    <g id="Dots" opacity="0.1">
        <g transform="matrix(1,0,0,1,19.0532,18.8651)">
            <g transform="matrix(0.959945,0,0,0.959945,-0.712549,10.0419)">
                <circle cx="26.209" cy="25.619" r="1.042" style="fill:rgb(235,235,235);"/>
            </g>
            <g transform="matrix(0.959945,0,0,0.959945,4.28745,10.0419)">
                <circle cx="26.209" cy="25.619" r="1.042" style="fill:rgb(235,235,235);"/>
            </g>
            <g transform="matrix(0.959945,0,0,0.959945,9.28745,10.0419)">
                <circle cx="26.209" cy="25.619" r="1.042" style="fill:rgb(235,235,235);"/>
            </g>
            <g transform="matrix(0.959945,0,0,0.959945,-0.712549,5.04188)">
                <circle cx="26.209" cy="25.619" r="1.042" style="fill:rgb(235,235,235);"/>
            </g>
            <g transform="matrix(0.959945,0,0,0.959945,4.28745,5.04188)">
                <circle cx="26.209" cy="25.619" r="1.042" style="fill:rgb(235,235,235);"/>
            </g>
            <g transform="matrix(0.959945,0,0,0.959945,9.28745,5.04188)">
                <circle cx="26.209" cy="25.619" r="1.042" style="fill:rgb(235,235,235);"/>
            </g>
            <g transform="matrix(0.959945,0,0,0.959945,-0.712549,0.0418798)">
                <circle cx="26.209" cy="25.619" r="1.042" style="fill:rgb(235,235,235);"/>
            </g>
            <g transform="matrix(0.959945,0,0,0.959945,4.28745,0.0418798)">
                <circle cx="26.209" cy="25.619" r="1.042" style="fill:rgb(235,235,235);"/>
            </g>
            <g transform="matrix(0.959945,0,0,0.959945,9.28745,0.0418798)">
                <circle cx="26.209" cy="25.619" r="1.042" style="fill:rgb(235,235,235);"/>
            </g>
        </g>
        <g transform="matrix(1,0,0,1,0.0548904,18.8651)">
            <g transform="matrix(0.959945,0,0,0.959945,-0.712549,10.0419)">
                <circle cx="26.209" cy="25.619" r="1.042" style="fill:rgb(235,235,235);"/>
            </g>
            <g transform="matrix(0.959945,0,0,0.959945,4.28745,10.0419)">
                <circle cx="26.209" cy="25.619" r="1.042" style="fill:rgb(235,235,235);"/>
            </g>
            <g transform="matrix(0.959945,0,0,0.959945,9.28745,10.0419)">
                <circle cx="26.209" cy="25.619" r="1.042" style="fill:rgb(235,235,235);"/>
            </g>
            <g transform="matrix(0.959945,0,0,0.959945,-0.712549,5.04188)">
                <circle cx="26.209" cy="25.619" r="1.042" style="fill:rgb(235,235,235);"/>
            </g>
            <g transform="matrix(0.959945,0,0,0.959945,4.28745,5.04188)">
                <circle cx="26.209" cy="25.619" r="1.042" style="fill:rgb(235,235,235);"/>
            </g>
            <g transform="matrix(0.959945,0,0,0.959945,9.28745,5.04188)">
                <circle cx="26.209" cy="25.619" r="1.042" style="fill:rgb(235,235,235);"/>
            </g>
            <g transform="matrix(0.959945,0,0,0.959945,-0.712549,0.0418798)">
                <circle cx="26.209" cy="25.619" r="1.042" style="fill:rgb(235,235,235);"/>
            </g>
            <g transform="matrix(0.959945,0,0,0.959945,4.28745,0.0418798)">
                <circle cx="26.209" cy="25.619" r="1.042" style="fill:rgb(235,235,235);"/>
            </g>
            <g transform="matrix(0.959945,0,0,0.959945,9.28745,0.0418798)">
                <circle cx="26.209" cy="25.619" r="1.042" style="fill:rgb(235,235,235);"/>
            </g>
        </g>
        <g transform="matrix(1,0,0,1,38.0204,18.8651)">
            <g transform="matrix(0.959945,0,0,0.959945,-0.712549,10.0419)">
                <circle cx="26.209" cy="25.619" r="1.042" style="fill:rgb(235,235,235);"/>
            </g>
            <g transform="matrix(0.959945,0,0,0.959945,4.28745,10.0419)">
                <circle cx="26.209" cy="25.619" r="1.042" style="fill:rgb(235,235,235);"/>
            </g>
            <g transform="matrix(0.959945,0,0,0.959945,9.28745,10.0419)">
                <circle cx="26.209" cy="25.619" r="1.042" style="fill:rgb(235,235,235);"/>
            </g>
            <g transform="matrix(0.959945,0,0,0.959945,-0.712549,5.04188)">
                <circle cx="26.209" cy="25.619" r="1.042" style="fill:rgb(235,235,235);"/>
            </g>
            <g transform="matrix(0.959945,0,0,0.959945,4.28745,5.04188)">
                <circle cx="26.209" cy="25.619" r="1.042" style="fill:rgb(235,235,235);"/>
            </g>
            <g transform="matrix(0.959945,0,0,0.959945,9.28745,5.04188)">
                <circle cx="26.209" cy="25.619" r="1.042" style="fill:rgb(235,235,235);"/>
            </g>
            <g transform="matrix(0.959945,0,0,0.959945,-0.712549,0.0418798)">
                <circle cx="26.209" cy="25.619" r="1.042" style="fill:rgb(235,235,235);"/>
            </g>
            <g transform="matrix(0.959945,0,0,0.959945,4.28745,0.0418798)">
                <circle cx="26.209" cy="25.619" r="1.042" style="fill:rgb(235,235,235);"/>
            </g>
            <g transform="matrix(0.959945,0,0,0.959945,9.28745,0.0418798)">
                <circle cx="26.209" cy="25.619" r="1.042" style="fill:rgb(235,235,235);"/>
            </g>
        </g>
        <g transform="matrix(1,0,0,1,-18.9309,18.8651)">
            <g transform="matrix(0.959945,0,0,0.959945,-0.712549,10.0419)">
                <circle cx="26.209" cy="25.619" r="1.042" style="fill:rgb(235,235,235);"/>
            </g>
            <g transform="matrix(0.959945,0,0,0.959945,4.28745,10.0419)">
                <circle cx="26.209" cy="25.619" r="1.042" style="fill:rgb(235,235,235);"/>
            </g>
            <g transform="matrix(0.959945,0,0,0.959945,9.28745,10.0419)">
                <circle cx="26.209" cy="25.619" r="1.042" style="fill:rgb(235,235,235);"/>
            </g>
            <g transform="matrix(0.959945,0,0,0.959945,-0.712549,5.04188)">
                <circle cx="26.209" cy="25.619" r="1.042" style="fill:rgb(235,235,235);"/>
            </g>
            <g transform="matrix(0.959945,0,0,0.959945,4.28745,5.04188)">
                <circle cx="26.209" cy="25.619" r="1.042" style="fill:rgb(235,235,235);"/>
            </g>
            <g transform="matrix(0.959945,0,0,0.959945,9.28745,5.04188)">
                <circle cx="26.209" cy="25.619" r="1.042" style="fill:rgb(235,235,235);"/>
            </g>
            <g transform="matrix(0.959945,0,0,0.959945,-0.712549,0.0418798)">
                <circle cx="26.209" cy="25.619" r="1.042" style="fill:rgb(235,235,235);"/>
            </g>
            <g transform="matrix(0.959945,0,0,0.959945,4.28745,0.0418798)">
                <circle cx="26.209" cy="25.619" r="1.042" style="fill:rgb(235,235,235);"/>
            </g>
            <g transform="matrix(0.959945,0,0,0.959945,9.28745,0.0418798)">
                <circle cx="26.209" cy="25.619" r="1.042" style="fill:rgb(235,235,235);"/>
            </g>
        </g>
        <g transform="matrix(1,0,0,1,57.0206,18.8651)">
            <g transform="matrix(0.959945,0,0,0.959945,-0.712549,10.0419)">
                <circle cx="26.209" cy="25.619" r="1.042" style="fill:rgb(235,235,235);"/>
            </g>
            <g transform="matrix(0.959945,0,0,0.959945,4.28745,10.0419)">
                <circle cx="26.209" cy="25.619" r="1.042" style="fill:rgb(235,235,235);"/>
            </g>
            <g transform="matrix(0.959945,0,0,0.959945,9.28745,10.0419)">
                <circle cx="26.209" cy="25.619" r="1.042" style="fill:rgb(235,235,235);"/>
            </g>
            <g transform="matrix(0.959945,0,0,0.959945,-0.712549,5.04188)">
                <circle cx="26.209" cy="25.619" r="1.042" style="fill:rgb(235,235,235);"/>
            </g>
            <g transform="matrix(0.959945,0,0,0.959945,4.28745,5.04188)">
                <circle cx="26.209" cy="25.619" r="1.042" style="fill:rgb(235,235,235);"/>
            </g>
            <g transform="matrix(0.959945,0,0,0.959945,9.28745,5.04188)">
                <circle cx="26.209" cy="25.619" r="1.042" style="fill:rgb(235,235,235);"/>
            </g>
            <g transform="matrix(0.959945,0,0,0.959945,-0.712549,0.0418798)">
                <circle cx="26.209" cy="25.619" r="1.042" style="fill:rgb(235,235,235);"/>
            </g>
            <g transform="matrix(0.959945,0,0,0.959945,4.28745,0.0418798)">
                <circle cx="26.209" cy="25.619" r="1.042" style="fill:rgb(235,235,235);"/>
            </g>
            <g transform="matrix(0.959945,0,0,0.959945,9.28745,0.0418798)">
                <circle cx="26.209" cy="25.619" r="1.042" style="fill:rgb(235,235,235);"/>
            </g>
        </g>
        <g transform="matrix(1,0,0,1,19.0532,37.3373)">
            <g transform="matrix(0.959945,0,0,0.959945,-0.712549,10.0419)">
                <circle cx="26.209" cy="25.619" r="1.042" style="fill:rgb(235,235,235);"/>
            </g>
            <g transform="matrix(0.959945,0,0,0.959945,4.28745,10.0419)">
                <circle cx="26.209" cy="25.619" r="1.042" style="fill:rgb(235,235,235);"/>
            </g>
            <g transform="matrix(0.959945,0,0,0.959945,9.28745,10.0419)">
                <circle cx="26.209" cy="25.619" r="1.042" style="fill:rgb(235,235,235);"/>
            </g>
            <g transform="matrix(0.959945,0,0,0.959945,-0.712549,5.04188)">
                <circle cx="26.209" cy="25.619" r="1.042" style="fill:rgb(235,235,235);"/>
            </g>
            <g transform="matrix(0.959945,0,0,0.959945,4.28745,5.04188)">
                <circle cx="26.209" cy="25.619" r="1.042" style="fill:rgb(235,235,235);"/>
            </g>
            <g transform="matrix(0.959945,0,0,0.959945,9.28745,5.04188)">
                <circle cx="26.209" cy="25.619" r="1.042" style="fill:rgb(235,235,235);"/>
            </g>
            <g transform="matrix(0.959945,0,0,0.959945,-0.712549,0.0418798)">
                <circle cx="26.209" cy="25.619" r="1.042" style="fill:rgb(235,235,235);"/>
            </g>
            <g transform="matrix(0.959945,0,0,0.959945,4.28745,0.0418798)">
                <circle cx="26.209" cy="25.619" r="1.042" style="fill:rgb(235,235,235);"/>
            </g>
            <g transform="matrix(0.959945,0,0,0.959945,9.28745,0.0418798)">
                <circle cx="26.209" cy="25.619" r="1.042" style="fill:rgb(235,235,235);"/>
            </g>
        </g>
        <g transform="matrix(1,0,0,1,0.0548904,37.3373)">
            <g transform="matrix(0.959945,0,0,0.959945,-0.712549,10.0419)">
                <circle cx="26.209" cy="25.619" r="1.042" style="fill:rgb(235,235,235);"/>
            </g>
            <g transform="matrix(0.959945,0,0,0.959945,4.28745,10.0419)">
                <circle cx="26.209" cy="25.619" r="1.042" style="fill:rgb(235,235,235);"/>
            </g>
            <g transform="matrix(0.959945,0,0,0.959945,9.28745,10.0419)">
                <circle cx="26.209" cy="25.619" r="1.042" style="fill:rgb(235,235,235);"/>
            </g>
            <g transform="matrix(0.959945,0,0,0.959945,-0.712549,5.04188)">
                <circle cx="26.209" cy="25.619" r="1.042" style="fill:rgb(235,235,235);"/>
            </g>
            <g transform="matrix(0.959945,0,0,0.959945,4.28745,5.04188)">
                <circle cx="26.209" cy="25.619" r="1.042" style="fill:rgb(235,235,235);"/>
            </g>
            <g transform="matrix(0.959945,0,0,0.959945,9.28745,5.04188)">
                <circle cx="26.209" cy="25.619" r="1.042" style="fill:rgb(235,235,235);"/>
            </g>
            <g transform="matrix(0.959945,0,0,0.959945,-0.712549,0.0418798)">
                <circle cx="26.209" cy="25.619" r="1.042" style="fill:rgb(235,235,235);"/>
            </g>
            <g transform="matrix(0.959945,0,0,0.959945,4.28745,0.0418798)">
                <circle cx="26.209" cy="25.619" r="1.042" style="fill:rgb(235,235,235);"/>
            </g>
            <g transform="matrix(0.959945,0,0,0.959945,9.28745,0.0418798)">
                <circle cx="26.209" cy="25.619" r="1.042" style="fill:rgb(235,235,235);"/>
            </g>
        </g>
        <g transform="matrix(1,0,0,1,38.0204,37.3373)">
            <g transform="matrix(0.959945,0,0,0.959945,-0.712549,10.0419)">
                <circle cx="26.209" cy="25.619" r="1.042" style="fill:rgb(235,235,235);"/>
            </g>
            <g transform="matrix(0.959945,0,0,0.959945,4.28745,10.0419)">
                <circle cx="26.209" cy="25.619" r="1.042" style="fill:rgb(235,235,235);"/>
            </g>
            <g transform="matrix(0.959945,0,0,0.959945,9.28745,10.0419)">
                <circle cx="26.209" cy="25.619" r="1.042" style="fill:rgb(235,235,235);"/>
            </g>
            <g transform="matrix(0.959945,0,0,0.959945,-0.712549,5.04188)">
                <circle cx="26.209" cy="25.619" r="1.042" style="fill:rgb(235,235,235);"/>
            </g>
            <g transform="matrix(0.959945,0,0,0.959945,4.28745,5.04188)">
                <circle cx="26.209" cy="25.619" r="1.042" style="fill:rgb(235,235,235);"/>
            </g>
            <g transform="matrix(0.959945,0,0,0.959945,9.28745,5.04188)">
                <circle cx="26.209" cy="25.619" r="1.042" style="fill:rgb(235,235,235);"/>
            </g>
            <g transform="matrix(0.959945,0,0,0.959945,-0.712549,0.0418798)">
                <circle cx="26.209" cy="25.619" r="1.042" style="fill:rgb(235,235,235);"/>
            </g>
            <g transform="matrix(0.959945,0,0,0.959945,4.28745,0.0418798)">
                <circle cx="26.209" cy="25.619" r="1.042" style="fill:rgb(235,235,235);"/>
            </g>
            <g transform="matrix(0.959945,0,0,0.959945,9.28745,0.0418798)">
                <circle cx="26.209" cy="25.619" r="1.042" style="fill:rgb(235,235,235);"/>
            </g>
        </g>
        <g transform="matrix(1,0,0,1,-18.9309,37.3373)">
            <g transform="matrix(0.959945,0,0,0.959945,-0.712549,10.0419)">
                <circle cx="26.209" cy="25.619" r="1.042" style="fill:rgb(235,235,235);"/>
            </g>
            <g transform="matrix(0.959945,0,0,0.959945,4.28745,10.0419)">
                <circle cx="26.209" cy="25.619" r="1.042" style="fill:rgb(235,235,235);"/>
            </g>
            <g transform="matrix(0.959945,0,0,0.959945,9.28745,10.0419)">
                <circle cx="26.209" cy="25.619" r="1.042" style="fill:rgb(235,235,235);"/>
            </g>
            <g transform="matrix(0.959945,0,0,0.959945,-0.712549,5.04188)">
                <circle cx="26.209" cy="25.619" r="1.042" style="fill:rgb(235,235,235);"/>
            </g>
            <g transform="matrix(0.959945,0,0,0.959945,4.28745,5.04188)">
                <circle cx="26.209" cy="25.619" r="1.042" style="fill:rgb(235,235,235);"/>
            </g>
            <g transform="matrix(0.959945,0,0,0.959945,9.28745,5.04188)">
                <circle cx="26.209" cy="25.619" r="1.042" style="fill:rgb(235,235,235);"/>
            </g>
            <g transform="matrix(0.959945,0,0,0.959945,-0.712549,0.0418798)">
                <circle cx="26.209" cy="25.619" r="1.042" style="fill:rgb(235,235,235);"/>
            </g>
            <g transform="matrix(0.959945,0,0,0.959945,4.28745,0.0418798)">
                <circle cx="26.209" cy="25.619" r="1.042" style="fill:rgb(235,235,235);"/>
            </g>
            <g transform="matrix(0.959945,0,0,0.959945,9.28745,0.0418798)">
                <circle cx="26.209" cy="25.619" r="1.042" style="fill:rgb(235,235,235);"/>
            </g>
        </g>
        <g transform="matrix(1,0,0,1,57.0206,37.3373)">
            <g transform="matrix(0.959945,0,0,0.959945,-0.712549,10.0419)">
                <circle cx="26.209" cy="25.619" r="1.042" style="fill:rgb(235,235,235);"/>
            </g>
            <g transform="matrix(0.959945,0,0,0.959945,4.28745,10.0419)">
                <circle cx="26.209" cy="25.619" r="1.042" style="fill:rgb(235,235,235);"/>
            </g>
            <g transform="matrix(0.959945,0,0,0.959945,9.28745,10.0419)">
                <circle cx="26.209" cy="25.619" r="1.042" style="fill:rgb(235,235,235);"/>
            </g>
            <g transform="matrix(0.959945,0,0,0.959945,-0.712549,5.04188)">
                <circle cx="26.209" cy="25.619" r="1.042" style="fill:rgb(235,235,235);"/>
            </g>
            <g transform="matrix(0.959945,0,0,0.959945,4.28745,5.04188)">
                <circle cx="26.209" cy="25.619" r="1.042" style="fill:rgb(235,235,235);"/>
            </g>
            <g transform="matrix(0.959945,0,0,0.959945,9.28745,5.04188)">
                <circle cx="26.209" cy="25.619" r="1.042" style="fill:rgb(235,235,235);"/>
            </g>
            <g transform="matrix(0.959945,0,0,0.959945,-0.712549,0.0418798)">
                <circle cx="26.209" cy="25.619" r="1.042" style="fill:rgb(235,235,235);"/>
            </g>
            <g transform="matrix(0.959945,0,0,0.959945,4.28745,0.0418798)">
                <circle cx="26.209" cy="25.619" r="1.042" style="fill:rgb(235,235,235);"/>
            </g>
            <g transform="matrix(0.959945,0,0,0.959945,9.28745,0.0418798)">
                <circle cx="26.209" cy="25.619" r="1.042" style="fill:rgb(235,235,235);"/>
            </g>
        </g>
        <g transform="matrix(1,0,0,1,19.0532,56.8481)">
            <g transform="matrix(0.959945,0,0,0.959945,-0.712549,10.0419)">
                <circle cx="26.209" cy="25.619" r="1.042" style="fill:rgb(235,235,235);"/>
            </g>
            <g transform="matrix(0.959945,0,0,0.959945,4.28745,10.0419)">
                <circle cx="26.209" cy="25.619" r="1.042" style="fill:rgb(235,235,235);"/>
            </g>
            <g transform="matrix(0.959945,0,0,0.959945,9.28745,10.0419)">
                <circle cx="26.209" cy="25.619" r="1.042" style="fill:rgb(235,235,235);"/>
            </g>
            <g transform="matrix(0.959945,0,0,0.959945,-0.712549,5.04188)">
                <circle cx="26.209" cy="25.619" r="1.042" style="fill:rgb(235,235,235);"/>
            </g>
            <g transform="matrix(0.959945,0,0,0.959945,4.28745,5.04188)">
                <circle cx="26.209" cy="25.619" r="1.042" style="fill:rgb(235,235,235);"/>
            </g>
            <g transform="matrix(0.959945,0,0,0.959945,9.28745,5.04188)">
                <circle cx="26.209" cy="25.619" r="1.042" style="fill:rgb(235,235,235);"/>
            </g>
            <g transform="matrix(0.959945,0,0,0.959945,-0.712549,0.0418798)">
                <circle cx="26.209" cy="25.619" r="1.042" style="fill:rgb(235,235,235);"/>
            </g>
            <g transform="matrix(0.959945,0,0,0.959945,4.28745,0.0418798)">
                <circle cx="26.209" cy="25.619" r="1.042" style="fill:rgb(235,235,235);"/>
            </g>
            <g transform="matrix(0.959945,0,0,0.959945,9.28745,0.0418798)">
                <circle cx="26.209" cy="25.619" r="1.042" style="fill:rgb(235,235,235);"/>
            </g>
        </g>
        <g transform="matrix(1,0,0,1,0.0548904,56.8481)">
            <g transform="matrix(0.959945,0,0,0.959945,-0.712549,10.0419)">
                <circle cx="26.209" cy="25.619" r="1.042" style="fill:rgb(235,235,235);"/>
            </g>
            <g transform="matrix(0.959945,0,0,0.959945,4.28745,10.0419)">
                <circle cx="26.209" cy="25.619" r="1.042" style="fill:rgb(235,235,235);"/>
            </g>
            <g transform="matrix(0.959945,0,0,0.959945,9.28745,10.0419)">
                <circle cx="26.209" cy="25.619" r="1.042" style="fill:rgb(235,235,235);"/>
            </g>
            <g transform="matrix(0.959945,0,0,0.959945,-0.712549,5.04188)">
                <circle cx="26.209" cy="25.619" r="1.042" style="fill:rgb(235,235,235);"/>
            </g>
            <g transform="matrix(0.959945,0,0,0.959945,4.28745,5.04188)">
                <circle cx="26.209" cy="25.619" r="1.042" style="fill:rgb(235,235,235);"/>
            </g>
            <g transform="matrix(0.959945,0,0,0.959945,9.28745,5.04188)">
                <circle cx="26.209" cy="25.619" r="1.042" style="fill:rgb(235,235,235);"/>
            </g>
            <g transform="matrix(0.959945,0,0,0.959945,-0.712549,0.0418798)">
                <circle cx="26.209" cy="25.619" r="1.042" style="fill:rgb(235,235,235);"/>
            </g>
            <g transform="matrix(0.959945,0,0,0.959945,4.28745,0.0418798)">
                <circle cx="26.209" cy="25.619" r="1.042" style="fill:rgb(235,235,235);"/>
            </g>
            <g transform="matrix(0.959945,0,0,0.959945,9.28745,0.0418798)">
                <circle cx="26.209" cy="25.619" r="1.042" style="fill:rgb(235,235,235);"/>
            </g>
        </g>
        <g transform="matrix(1,0,0,1,38.0204,56.8481)">
            <g transform="matrix(0.959945,0,0,0.959945,-0.712549,10.0419)">
                <circle cx="26.209" cy="25.619" r="1.042" style="fill:rgb(235,235,235);"/>
            </g>
            <g transform="matrix(0.959945,0,0,0.959945,4.28745,10.0419)">
                <circle cx="26.209" cy="25.619" r="1.042" style="fill:rgb(235,235,235);"/>
            </g>
            <g transform="matrix(0.959945,0,0,0.959945,9.28745,10.0419)">
                <circle cx="26.209" cy="25.619" r="1.042" style="fill:rgb(235,235,235);"/>
            </g>
            <g transform="matrix(0.959945,0,0,0.959945,-0.712549,5.04188)">
                <circle cx="26.209" cy="25.619" r="1.042" style="fill:rgb(235,235,235);"/>
            </g>
            <g transform="matrix(0.959945,0,0,0.959945,4.28745,5.04188)">
                <circle cx="26.209" cy="25.619" r="1.042" style="fill:rgb(235,235,235);"/>
            </g>
            <g transform="matrix(0.959945,0,0,0.959945,9.28745,5.04188)">
                <circle cx="26.209" cy="25.619" r="1.042" style="fill:rgb(235,235,235);"/>
            </g>
            <g transform="matrix(0.959945,0,0,0.959945,-0.712549,0.0418798)">
                <circle cx="26.209" cy="25.619" r="1.042" style="fill:rgb(235,235,235);"/>
            </g>
            <g transform="matrix(0.959945,0,0,0.959945,4.28745,0.0418798)">
                <circle cx="26.209" cy="25.619" r="1.042" style="fill:rgb(235,235,235);"/>
            </g>
            <g transform="matrix(0.959945,0,0,0.959945,9.28745,0.0418798)">
                <circle cx="26.209" cy="25.619" r="1.042" style="fill:rgb(235,235,235);"/>
            </g>
        </g>
        <g transform="matrix(1,0,0,1,-18.9309,56.8481)">
            <g transform="matrix(0.959945,0,0,0.959945,-0.712549,10.0419)">
                <circle cx="26.209" cy="25.619" r="1.042" style="fill:rgb(235,235,235);"/>
            </g>
            <g transform="matrix(0.959945,0,0,0.959945,4.28745,10.0419)">
                <circle cx="26.209" cy="25.619" r="1.042" style="fill:rgb(235,235,235);"/>
            </g>
            <g transform="matrix(0.959945,0,0,0.959945,9.28745,10.0419)">
                <circle cx="26.209" cy="25.619" r="1.042" style="fill:rgb(235,235,235);"/>
            </g>
            <g transform="matrix(0.959945,0,0,0.959945,-0.712549,5.04188)">
                <circle cx="26.209" cy="25.619" r="1.042" style="fill:rgb(235,235,235);"/>
            </g>
            <g transform="matrix(0.959945,0,0,0.959945,4.28745,5.04188)">
                <circle cx="26.209" cy="25.619" r="1.042" style="fill:rgb(235,235,235);"/>
            </g>
            <g transform="matrix(0.959945,0,0,0.959945,9.28745,5.04188)">
                <circle cx="26.209" cy="25.619" r="1.042" style="fill:rgb(235,235,235);"/>
            </g>
            <g transform="matrix(0.959945,0,0,0.959945,-0.712549,0.0418798)">
                <circle cx="26.209" cy="25.619" r="1.042" style="fill:rgb(235,235,235);"/>
            </g>
            <g transform="matrix(0.959945,0,0,0.959945,4.28745,0.0418798)">
                <circle cx="26.209" cy="25.619" r="1.042" style="fill:rgb(235,235,235);"/>
            </g>
            <g transform="matrix(0.959945,0,0,0.959945,9.28745,0.0418798)">
                <circle cx="26.209" cy="25.619" r="1.042" style="fill:rgb(235,235,235);"/>
            </g>
        </g>
        <g transform="matrix(1,0,0,1,57.0206,56.8481)">
            <g transform="matrix(0.959945,0,0,0.959945,-0.712549,10.0419)">
                <circle cx="26.209" cy="25.619" r="1.042" style="fill:rgb(235,235,235);"/>
            </g>
            <g transform="matrix(0.959945,0,0,0.959945,4.28745,10.0419)">
                <circle cx="26.209" cy="25.619" r="1.042" style="fill:rgb(235,235,235);"/>
            </g>
            <g transform="matrix(0.959945,0,0,0.959945,9.28745,10.0419)">
                <circle cx="26.209" cy="25.619" r="1.042" style="fill:rgb(235,235,235);"/>
            </g>
            <g transform="matrix(0.959945,0,0,0.959945,-0.712549,5.04188)">
                <circle cx="26.209" cy="25.619" r="1.042" style="fill:rgb(235,235,235);"/>
            </g>
            <g transform="matrix(0.959945,0,0,0.959945,4.28745,5.04188)">
                <circle cx="26.209" cy="25.619" r="1.042" style="fill:rgb(235,235,235);"/>
            </g>
            <g transform="matrix(0.959945,0,0,0.959945,9.28745,5.04188)">
                <circle cx="26.209" cy="25.619" r="1.042" style="fill:rgb(235,235,235);"/>
            </g>
            <g transform="matrix(0.959945,0,0,0.959945,-0.712549,0.0418798)">
                <circle cx="26.209" cy="25.619" r="1.042" style="fill:rgb(235,235,235);"/>
            </g>
            <g transform="matrix(0.959945,0,0,0.959945,4.28745,0.0418798)">
                <circle cx="26.209" cy="25.619" r="1.042" style="fill:rgb(235,235,235);"/>
            </g>
            <g transform="matrix(0.959945,0,0,0.959945,9.28745,0.0418798)">
                <circle cx="26.209" cy="25.619" r="1.042" style="fill:rgb(235,235,235);"/>
            </g>
        </g>
        <g transform="matrix(1,0,0,1,19.0532,-0.605802)">
            <g transform="matrix(0.959945,0,0,0.959945,-0.712549,10.0419)">
                <circle cx="26.209" cy="25.619" r="1.042" style="fill:rgb(235,235,235);"/>
            </g>
            <g transform="matrix(0.959945,0,0,0.959945,4.28745,10.0419)">
                <circle cx="26.209" cy="25.619" r="1.042" style="fill:rgb(235,235,235);"/>
            </g>
            <g transform="matrix(0.959945,0,0,0.959945,9.28745,10.0419)">
                <circle cx="26.209" cy="25.619" r="1.042" style="fill:rgb(235,235,235);"/>
            </g>
            <g transform="matrix(0.959945,0,0,0.959945,-0.712549,5.04188)">
                <circle cx="26.209" cy="25.619" r="1.042" style="fill:rgb(235,235,235);"/>
            </g>
            <g transform="matrix(0.959945,0,0,0.959945,4.28745,5.04188)">
                <circle cx="26.209" cy="25.619" r="1.042" style="fill:rgb(235,235,235);"/>
            </g>
            <g transform="matrix(0.959945,0,0,0.959945,9.28745,5.04188)">
                <circle cx="26.209" cy="25.619" r="1.042" style="fill:rgb(235,235,235);"/>
            </g>
            <g transform="matrix(0.959945,0,0,0.959945,-0.712549,0.0418798)">
                <circle cx="26.209" cy="25.619" r="1.042" style="fill:rgb(235,235,235);"/>
            </g>
            <g transform="matrix(0.959945,0,0,0.959945,4.28745,0.0418798)">
                <circle cx="26.209" cy="25.619" r="1.042" style="fill:rgb(235,235,235);"/>
            </g>
            <g transform="matrix(0.959945,0,0,0.959945,9.28745,0.0418798)">
                <circle cx="26.209" cy="25.619" r="1.042" style="fill:rgb(235,235,235);"/>
            </g>
        </g>
        <g transform="matrix(1,0,0,1,0.0548904,-0.605802)">
            <g transform="matrix(0.959945,0,0,0.959945,-0.712549,10.0419)">
                <circle cx="26.209" cy="25.619" r="1.042" style="fill:rgb(235,235,235);"/>
            </g>
            <g transform="matrix(0.959945,0,0,0.959945,4.28745,10.0419)">
                <circle cx="26.209" cy="25.619" r="1.042" style="fill:rgb(235,235,235);"/>
            </g>
            <g transform="matrix(0.959945,0,0,0.959945,9.28745,10.0419)">
                <circle cx="26.209" cy="25.619" r="1.042" style="fill:rgb(235,235,235);"/>
            </g>
            <g transform="matrix(0.959945,0,0,0.959945,-0.712549,5.04188)">
                <circle cx="26.209" cy="25.619" r="1.042" style="fill:rgb(235,235,235);"/>
            </g>
            <g transform="matrix(0.959945,0,0,0.959945,4.28745,5.04188)">
                <circle cx="26.209" cy="25.619" r="1.042" style="fill:rgb(235,235,235);"/>
            </g>
            <g transform="matrix(0.959945,0,0,0.959945,9.28745,5.04188)">
                <circle cx="26.209" cy="25.619" r="1.042" style="fill:rgb(235,235,235);"/>
            </g>
            <g transform="matrix(0.959945,0,0,0.959945,-0.712549,0.0418798)">
                <circle cx="26.209" cy="25.619" r="1.042" style="fill:rgb(235,235,235);"/>
            </g>
            <g transform="matrix(0.959945,0,0,0.959945,4.28745,0.0418798)">
                <circle cx="26.209" cy="25.619" r="1.042" style="fill:rgb(235,235,235);"/>
            </g>
            <g transform="matrix(0.959945,0,0,0.959945,9.28745,0.0418798)">
                <circle cx="26.209" cy="25.619" r="1.042" style="fill:rgb(235,235,235);"/>
            </g>
        </g>
        <g transform="matrix(1,0,0,1,38.0204,-0.605802)">
            <g transform="matrix(0.959945,0,0,0.959945,-0.712549,10.0419)">
                <circle cx="26.209" cy="25.619" r="1.042" style="fill:rgb(235,235,235);"/>
            </g>
            <g transform="matrix(0.959945,0,0,0.959945,4.28745,10.0419)">
                <circle cx="26.209" cy="25.619" r="1.042" style="fill:rgb(235,235,235);"/>
            </g>
            <g transform="matrix(0.959945,0,0,0.959945,9.28745,10.0419)">
                <circle cx="26.209" cy="25.619" r="1.042" style="fill:rgb(235,235,235);"/>
            </g>
            <g transform="matrix(0.959945,0,0,0.959945,-0.712549,5.04188)">
                <circle cx="26.209" cy="25.619" r="1.042" style="fill:rgb(235,235,235);"/>
            </g>
            <g transform="matrix(0.959945,0,0,0.959945,4.28745,5.04188)">
                <circle cx="26.209" cy="25.619" r="1.042" style="fill:rgb(235,235,235);"/>
            </g>
            <g transform="matrix(0.959945,0,0,0.959945,9.28745,5.04188)">
                <circle cx="26.209" cy="25.619" r="1.042" style="fill:rgb(235,235,235);"/>
            </g>
            <g transform="matrix(0.959945,0,0,0.959945,-0.712549,0.0418798)">
                <circle cx="26.209" cy="25.619" r="1.042" style="fill:rgb(235,235,235);"/>
            </g>
            <g transform="matrix(0.959945,0,0,0.959945,4.28745,0.0418798)">
                <circle cx="26.209" cy="25.619" r="1.042" style="fill:rgb(235,235,235);"/>
            </g>
            <g transform="matrix(0.959945,0,0,0.959945,9.28745,0.0418798)">
                <circle cx="26.209" cy="25.619" r="1.042" style="fill:rgb(235,235,235);"/>
            </g>
        </g>
        <g transform="matrix(1,0,0,1,-18.9309,-0.605802)">
            <g transform="matrix(0.959945,0,0,0.959945,-0.712549,10.0419)">
                <circle cx="26.209" cy="25.619" r="1.042" style="fill:rgb(235,235,235);"/>
            </g>
            <g transform="matrix(0.959945,0,0,0.959945,4.28745,10.0419)">
                <circle cx="26.209" cy="25.619" r="1.042" style="fill:rgb(235,235,235);"/>
            </g>
            <g transform="matrix(0.959945,0,0,0.959945,9.28745,10.0419)">
                <circle cx="26.209" cy="25.619" r="1.042" style="fill:rgb(235,235,235);"/>
            </g>
            <g transform="matrix(0.959945,0,0,0.959945,-0.712549,5.04188)">
                <circle cx="26.209" cy="25.619" r="1.042" style="fill:rgb(235,235,235);"/>
            </g>
            <g transform="matrix(0.959945,0,0,0.959945,4.28745,5.04188)">
                <circle cx="26.209" cy="25.619" r="1.042" style="fill:rgb(235,235,235);"/>
            </g>
            <g transform="matrix(0.959945,0,0,0.959945,9.28745,5.04188)">
                <circle cx="26.209" cy="25.619" r="1.042" style="fill:rgb(235,235,235);"/>
            </g>
            <g transform="matrix(0.959945,0,0,0.959945,-0.712549,0.0418798)">
                <circle cx="26.209" cy="25.619" r="1.042" style="fill:rgb(235,235,235);"/>
            </g>
            <g transform="matrix(0.959945,0,0,0.959945,4.28745,0.0418798)">
                <circle cx="26.209" cy="25.619" r="1.042" style="fill:rgb(235,235,235);"/>
            </g>
            <g transform="matrix(0.959945,0,0,0.959945,9.28745,0.0418798)">
                <circle cx="26.209" cy="25.619" r="1.042" style="fill:rgb(235,235,235);"/>
            </g>
        </g>
        <g transform="matrix(1,0,0,1,57.0206,-0.605802)">
            <g transform="matrix(0.959945,0,0,0.959945,-0.712549,10.0419)">
                <circle cx="26.209" cy="25.619" r="1.042" style="fill:rgb(235,235,235);"/>
            </g>
            <g transform="matrix(0.959945,0,0,0.959945,4.28745,10.0419)">
                <circle cx="26.209" cy="25.619" r="1.042" style="fill:rgb(235,235,235);"/>
            </g>
            <g transform="matrix(0.959945,0,0,0.959945,9.28745,10.0419)">
                <circle cx="26.209" cy="25.619" r="1.042" style="fill:rgb(235,235,235);"/>
            </g>
            <g transform="matrix(0.959945,0,0,0.959945,-0.712549,5.04188)">
                <circle cx="26.209" cy="25.619" r="1.042" style="fill:rgb(235,235,235);"/>
            </g>
            <g transform="matrix(0.959945,0,0,0.959945,4.28745,5.04188)">
                <circle cx="26.209" cy="25.619" r="1.042" style="fill:rgb(235,235,235);"/>
            </g>
            <g transform="matrix(0.959945,0,0,0.959945,9.28745,5.04188)">
                <circle cx="26.209" cy="25.619" r="1.042" style="fill:rgb(235,235,235);"/>
            </g>
            <g transform="matrix(0.959945,0,0,0.959945,-0.712549,0.0418798)">
                <circle cx="26.209" cy="25.619" r="1.042" style="fill:rgb(235,235,235);"/>
            </g>
            <g transform="matrix(0.959945,0,0,0.959945,4.28745,0.0418798)">
                <circle cx="26.209" cy="25.619" r="1.042" style="fill:rgb(235,235,235);"/>
            </g>
            <g transform="matrix(0.959945,0,0,0.959945,9.28745,0.0418798)">
                <circle cx="26.209" cy="25.619" r="1.042" style="fill:rgb(235,235,235);"/>
            </g>
        </g>
        <g transform="matrix(1,0,0,1,19.0532,-19.0928)">
            <g transform="matrix(0.959945,0,0,0.959945,-0.712549,10.0419)">
                <circle cx="26.209" cy="25.619" r="1.042" style="fill:rgb(235,235,235);"/>
            </g>
            <g transform="matrix(0.959945,0,0,0.959945,4.28745,10.0419)">
                <circle cx="26.209" cy="25.619" r="1.042" style="fill:rgb(235,235,235);"/>
            </g>
            <g transform="matrix(0.959945,0,0,0.959945,9.28745,10.0419)">
                <circle cx="26.209" cy="25.619" r="1.042" style="fill:rgb(235,235,235);"/>
            </g>
            <g transform="matrix(0.959945,0,0,0.959945,-0.712549,5.04188)">
                <circle cx="26.209" cy="25.619" r="1.042" style="fill:rgb(235,235,235);"/>
            </g>
            <g transform="matrix(0.959945,0,0,0.959945,4.28745,5.04188)">
                <circle cx="26.209" cy="25.619" r="1.042" style="fill:rgb(235,235,235);"/>
            </g>
            <g transform="matrix(0.959945,0,0,0.959945,9.28745,5.04188)">
                <circle cx="26.209" cy="25.619" r="1.042" style="fill:rgb(235,235,235);"/>
            </g>
            <g transform="matrix(0.959945,0,0,0.959945,-0.712549,0.0418798)">
                <circle cx="26.209" cy="25.619" r="1.042" style="fill:rgb(235,235,235);"/>
            </g>
            <g transform="matrix(0.959945,0,0,0.959945,4.28745,0.0418798)">
                <circle cx="26.209" cy="25.619" r="1.042" style="fill:rgb(235,235,235);"/>
            </g>
            <g transform="matrix(0.959945,0,0,0.959945,9.28745,0.0418798)">
                <circle cx="26.209" cy="25.619" r="1.042" style="fill:rgb(235,235,235);"/>
            </g>
        </g>
        <g transform="matrix(1,0,0,1,0.0548904,-19.0928)">
            <g transform="matrix(0.959945,0,0,0.959945,-0.712549,10.0419)">
                <circle cx="26.209" cy="25.619" r="1.042" style="fill:rgb(235,235,235);"/>
            </g>
            <g transform="matrix(0.959945,0,0,0.959945,4.28745,10.0419)">
                <circle cx="26.209" cy="25.619" r="1.042" style="fill:rgb(235,235,235);"/>
            </g>
            <g transform="matrix(0.959945,0,0,0.959945,9.28745,10.0419)">
                <circle cx="26.209" cy="25.619" r="1.042" style="fill:rgb(235,235,235);"/>
            </g>
            <g transform="matrix(0.959945,0,0,0.959945,-0.712549,5.04188)">
                <circle cx="26.209" cy="25.619" r="1.042" style="fill:rgb(235,235,235);"/>
            </g>
            <g transform="matrix(0.959945,0,0,0.959945,4.28745,5.04188)">
                <circle cx="26.209" cy="25.619" r="1.042" style="fill:rgb(235,235,235);"/>
            </g>
            <g transform="matrix(0.959945,0,0,0.959945,9.28745,5.04188)">
                <circle cx="26.209" cy="25.619" r="1.042" style="fill:rgb(235,235,235);"/>
            </g>
            <g transform="matrix(0.959945,0,0,0.959945,-0.712549,0.0418798)">
                <circle cx="26.209" cy="25.619" r="1.042" style="fill:rgb(235,235,235);"/>
            </g>
            <g transform="matrix(0.959945,0,0,0.959945,4.28745,0.0418798)">
                <circle cx="26.209" cy="25.619" r="1.042" style="fill:rgb(235,235,235);"/>
            </g>
            <g transform="matrix(0.959945,0,0,0.959945,9.28745,0.0418798)">
                <circle cx="26.209" cy="25.619" r="1.042" style="fill:rgb(235,235,235);"/>
            </g>
        </g>
        <g transform="matrix(1,0,0,1,38.0204,-19.0928)">
            <g transform="matrix(0.959945,0,0,0.959945,-0.712549,10.0419)">
                <circle cx="26.209" cy="25.619" r="1.042" style="fill:rgb(235,235,235);"/>
            </g>
            <g transform="matrix(0.959945,0,0,0.959945,4.28745,10.0419)">
                <circle cx="26.209" cy="25.619" r="1.042" style="fill:rgb(235,235,235);"/>
            </g>
            <g transform="matrix(0.959945,0,0,0.959945,9.28745,10.0419)">
                <circle cx="26.209" cy="25.619" r="1.042" style="fill:rgb(235,235,235);"/>
            </g>
            <g transform="matrix(0.959945,0,0,0.959945,-0.712549,5.04188)">
                <circle cx="26.209" cy="25.619" r="1.042" style="fill:rgb(235,235,235);"/>
            </g>
            <g transform="matrix(0.959945,0,0,0.959945,4.28745,5.04188)">
                <circle cx="26.209" cy="25.619" r="1.042" style="fill:rgb(235,235,235);"/>
            </g>
            <g transform="matrix(0.959945,0,0,0.959945,9.28745,5.04188)">
                <circle cx="26.209" cy="25.619" r="1.042" style="fill:rgb(235,235,235);"/>
            </g>
            <g transform="matrix(0.959945,0,0,0.959945,-0.712549,0.0418798)">
                <circle cx="26.209" cy="25.619" r="1.042" style="fill:rgb(235,235,235);"/>
            </g>
            <g transform="matrix(0.959945,0,0,0.959945,4.28745,0.0418798)">
                <circle cx="26.209" cy="25.619" r="1.042" style="fill:rgb(235,235,235);"/>
            </g>
            <g transform="matrix(0.959945,0,0,0.959945,9.28745,0.0418798)">
                <circle cx="26.209" cy="25.619" r="1.042" style="fill:rgb(235,235,235);"/>
            </g>
        </g>
        <g transform="matrix(1,0,0,1,-18.9309,-19.0928)">
            <g transform="matrix(0.959945,0,0,0.959945,-0.712549,10.0419)">
                <circle cx="26.209" cy="25.619" r="1.042" style="fill:rgb(235,235,235);"/>
            </g>
            <g transform="matrix(0.959945,0,0,0.959945,4.28745,10.0419)">
                <circle cx="26.209" cy="25.619" r="1.042" style="fill:rgb(235,235,235);"/>
            </g>
            <g transform="matrix(0.959945,0,0,0.959945,9.28745,10.0419)">
                <circle cx="26.209" cy="25.619" r="1.042" style="fill:rgb(235,235,235);"/>
            </g>
            <g transform="matrix(0.959945,0,0,0.959945,-0.712549,5.04188)">
                <circle cx="26.209" cy="25.619" r="1.042" style="fill:rgb(235,235,235);"/>
            </g>
            <g transform="matrix(0.959945,0,0,0.959945,4.28745,5.04188)">
                <circle cx="26.209" cy="25.619" r="1.042" style="fill:rgb(235,235,235);"/>
            </g>
            <g transform="matrix(0.959945,0,0,0.959945,9.28745,5.04188)">
                <circle cx="26.209" cy="25.619" r="1.042" style="fill:rgb(235,235,235);"/>
            </g>
            <g transform="matrix(0.959945,0,0,0.959945,-0.712549,0.0418798)">
                <circle cx="26.209" cy="25.619" r="1.042" style="fill:rgb(235,235,235);"/>
            </g>
            <g transform="matrix(0.959945,0,0,0.959945,4.28745,0.0418798)">
                <circle cx="26.209" cy="25.619" r="1.042" style="fill:rgb(235,235,235);"/>
            </g>
            <g transform="matrix(0.959945,0,0,0.959945,9.28745,0.0418798)">
                <circle cx="26.209" cy="25.619" r="1.042" style="fill:rgb(235,235,235);"/>
            </g>
        </g>
        <g transform="matrix(1,0,0,1,57.0206,-19.0928)">
            <g transform="matrix(0.959945,0,0,0.959945,-0.712549,10.0419)">
                <circle cx="26.209" cy="25.619" r="1.042" style="fill:rgb(235,235,235);"/>
            </g>
            <g transform="matrix(0.959945,0,0,0.959945,4.28745,10.0419)">
                <circle cx="26.209" cy="25.619" r="1.042" style="fill:rgb(235,235,235);"/>
            </g>
            <g transform="matrix(0.959945,0,0,0.959945,9.28745,10.0419)">
                <circle cx="26.209" cy="25.619" r="1.042" style="fill:rgb(235,235,235);"/>
            </g>
            <g transform="matrix(0.959945,0,0,0.959945,-0.712549,5.04188)">
                <circle cx="26.209" cy="25.619" r="1.042" style="fill:rgb(235,235,235);"/>
            </g>
            <g transform="matrix(0.959945,0,0,0.959945,4.28745,5.04188)">
                <circle cx="26.209" cy="25.619" r="1.042" style="fill:rgb(235,235,235);"/>
            </g>
            <g transform="matrix(0.959945,0,0,0.959945,9.28745,5.04188)">
                <circle cx="26.209" cy="25.619" r="1.042" style="fill:rgb(235,235,235);"/>
            </g>
            <g transform="matrix(0.959945,0,0,0.959945,-0.712549,0.0418798)">
                <circle cx="26.209" cy="25.619" r="1.042" style="fill:rgb(235,235,235);"/>
            </g>
            <g transform="matrix(0.959945,0,0,0.959945,4.28745,0.0418798)">
                <circle cx="26.209" cy="25.619" r="1.042" style="fill:rgb(235,235,235);"/>
            </g>
            <g transform="matrix(0.959945,0,0,0.959945,9.28745,0.0418798)">
                <circle cx="26.209" cy="25.619" r="1.042" style="fill:rgb(235,235,235);"/>
            </g>
        </g>
    </g>
    <g id="Gitter" transform="matrix(1,0,0,1,-99,-23.9972)"  opacity="0.33">
        <g transform="matrix(1.02099,0,0,1.02119,-2.07811,-0.508514)">
            <path d="M194.006,23.997L99.002,23.997L99.002,118.984L194.006,118.984L194.006,23.997ZM192.047,25.956L192.047,117.026C192.047,117.026 100.961,117.026 100.961,117.026C100.961,117.026 100.961,25.956 100.961,25.956L192.047,25.956Z" style="fill:rgb(67,153,111);"/>
        </g>
        <g transform="matrix(0.77802,0,0,1,25.2943,76.8167)">
            <path d="M94.738,24.183L219.411,24.183" style="fill:none;stroke:rgb(67,153,111);stroke-width:2.23px;"/>
        </g>
        <g transform="matrix(0.77802,0,0,1,25.2943,57.8163)">
            <path d="M94.738,24.183L219.411,24.183" style="fill:none;stroke:rgb(67,153,111);stroke-width:2.23px;"/>
        </g>
        <g transform="matrix(0.77802,0,0,1,25.2943,38.816)">
            <path d="M94.738,24.183L219.411,24.183" style="fill:none;stroke:rgb(67,153,111);stroke-width:2.23px;"/>
        </g>
        <g transform="matrix(0.77802,0,0,1,25.2943,19.8156)">
            <path d="M94.738,24.183L219.411,24.183" style="fill:none;stroke:rgb(67,153,111);stroke-width:2.23px;"/>
        </g>
        <g transform="matrix(8.9322e-17,0.778039,-1,3.26591e-17,143.182,-49.7127)">
            <path d="M94.738,24.183L219.411,24.183" style="fill:none;stroke:rgb(67,153,111);stroke-width:2.23px;"/>
        </g>
        <g transform="matrix(8.9322e-17,0.778039,-1,3.26591e-17,162.183,-49.7127)">
            <path d="M94.738,24.183L219.411,24.183" style="fill:none;stroke:rgb(67,153,111);stroke-width:2.23px;"/>
        </g>
        <g transform="matrix(8.9322e-17,0.778039,-1,3.26591e-17,181.183,-49.7127)">
            <path d="M94.738,24.183L219.411,24.183" style="fill:none;stroke:rgb(67,153,111);stroke-width:2.23px;"/>
        </g>
        <g transform="matrix(8.9322e-17,0.778039,-1,3.26591e-17,200.183,-49.7127)">
            <path d="M94.738,24.183L219.411,24.183" style="fill:none;stroke:rgb(67,153,111);stroke-width:2.23px;"/>
        </g>
    </g>
</svg>
